# Wavefront OBJ file
# Exported by Maverick Model 3D 1.3.12
# Sun Mar 27 08:02:45 2022

mtllib bus.mtl

# 8 Vertices
v -8.233298 -2.638583 19.028156
v 7.637602 -2.638583 19.028154
v -8.233298 21.235441 19.028156
v 7.637602 21.235441 19.028154
v 7.637603 -2.638583 -19.028156
v -8.233297 -2.638583 -19.028154
v 7.637603 21.235441 -19.028156
v -8.233297 21.235441 -19.028154

# 36 Texture Coordinates
vt 0.002643 0.335872
vt 0.199077 0.335872
vt 0.002643 0.671997
vt 0.199077 0.335872
vt 0.199077 0.671997
vt 0.002643 0.671997
vt -0.000563 0.694437
vt 0.206578 0.694437
vt -0.000563 0.997525
vt 0.206578 0.694437
vt 0.206578 0.997525
vt -0.000563 0.997525
vt 0.995924 0.997801
vt 0.237656 0.673889
vt 0.995924 0.673889
vt 0.995924 0.997801
vt 0.237656 0.997801
vt 0.237656 0.673889
vt 0.999676 0.669571
vt 0.225731 0.33538
vt 0.999676 0.33538
vt 0.999676 0.669571
vt 0.225731 0.669571
vt 0.225731 0.33538
vt 0.007878 0.276262
vt 0.060432 0.320707
vt 0.007878 0.320707
vt 0.007878 0.276262
vt 0.060432 0.276262
vt 0.060432 0.320707
vt 0.997175 0.153988
vt -0.083663 0.002825
vt 0.997175 0.002825
vt 0.997175 0.153988
vt -0.083663 0.153988
vt -0.083663 0.002825

# 36 Vertex Normals
vn 0.0 0.0 1.0
vn 0.0 0.0 1.0
vn 0.0 0.0 1.0
vn 0.0 0.0 1.0
vn 0.0 0.0 1.0
vn 0.0 0.0 1.0
vn -0.0 0.0 -1.0
vn -0.0 0.0 -1.0
vn -0.0 0.0 -1.0
vn -0.0 0.0 -1.0
vn -0.0 0.0 -1.0
vn -0.0 0.0 -1.0
vn -1.0 0.0 -0.0
vn -1.0 0.0 -0.0
vn -1.0 0.0 -0.0
vn -1.0 0.0 -0.0
vn -1.0 0.0 -0.0
vn -1.0 0.0 -0.0
vn 1.0 0.0 0.0
vn 1.0 0.0 0.0
vn 1.0 0.0 0.0
vn 1.0 0.0 0.0
vn 1.0 0.0 0.0
vn 1.0 0.0 0.0
vn -0.0 1.0 0.0
vn -0.0 1.0 0.0
vn -0.0 1.0 0.0
vn -0.0 1.0 0.0
vn 0.0 1.0 0.0
vn -0.0 1.0 0.0
vn -0.0 -1.0 0.0
vn -0.0 -1.0 0.0
vn 0.0 -1.0 0.0
vn -0.0 -1.0 0.0
vn -0.0 -1.0 0.0
vn -0.0 -1.0 0.0

# bus, 12 grouped triangles

usemtl bus
o bus
g bus

f 1/1/1 2/2/2 3/3/3
f 2/4/4 4/5/5 3/6/6
f 5/7/7 6/8/8 7/9/9
f 6/10/10 8/11/11 7/12/12
f 3/13/13 6/14/14 1/15/15
f 3/16/16 8/17/17 6/18/18
f 7/19/19 2/20/20 5/21/21
f 7/22/22 4/23/23 2/24/24
f 3/25/25 7/26/26 8/27/27
f 3/28/28 4/29/29 7/30/30
f 2/31/31 6/32/32 5/33/33
f 2/34/34 1/35/35 6/36/36
