# Wavefront OBJ file
# Exported by Maverick Model 3D 1.3.12
# Sat Mar  5 08:19:43 2022

mtllib car.mtl

# 106 Vertices
v 4.25101 -3.864944 5.816501
v 4.183959 -3.812687 -6.283525
v 4.119241 4.618758 5.748851
v 4.188482 4.575817 -6.234858
v -4.251554 -3.812687 -6.283525
v -4.222507 -3.788934 5.816501
v -4.188482 4.575817 -6.234858
v -4.132835 4.571159 5.707701
v 4.188482 -3.853403 13.041848
v 4.188482 4.52356 13.041848
v -4.188482 -3.853403 13.041848
v -4.188482 4.52356 13.041848
v 4.110861 10.402217 4.573062
v 4.188482 10.433299 -3.800674
v -4.188482 10.433299 -3.800674
v -4.151194 10.426503 4.586593
v 4.110861 10.402217 4.573062
v 4.188482 10.433299 -3.800674
v -4.188482 10.433299 -3.800674
v -4.151194 10.426503 4.586593
v 4.110861 10.421853 4.573062
v 4.188482 10.421853 -3.800674
v -4.188482 10.421853 -3.800674
v -4.151194 10.421853 4.586593
v -4.23053 -3.91177 11.034157
v -4.188482 0.335078 13.041848
v -4.129848 0.111693 11.01459
v -4.188482 4.52356 11.053724
v -4.1357 0.06102 5.460859
v 4.185467 -3.91177 11.034157
v 0.0 -3.853403 13.041848
v 0.0 -3.853403 11.053724
v -4.23053 -3.91177 11.034157
v 4.188482 4.52356 11.053724
v 4.188482 0.335078 13.041848
v 4.186011 0.111693 11.065384
v 4.185467 -3.91177 11.034157
v 4.142034 0.111693 5.460859
v -4.129848 0.111693 11.01459
v -4.1357 0.06102 5.460859
v 4.186011 0.111693 11.065384
v 4.142034 0.111693 5.460859
v -4.1357 0.06102 5.460859
v -4.222507 -3.788934 5.816501
v 4.142034 0.111693 5.460859
v 4.25101 -3.864944 5.816501
v -4.129848 0.111693 11.01459
v -4.23053 -3.91177 11.034157
v 4.186011 0.111693 11.065384
v 4.185467 -3.91177 11.034157
v 4.188482 4.575817 -6.234858
v -4.188482 4.575817 -6.234858
v 4.188482 -2.915161 -17.038343
v 4.188482 3.666078 -17.102476
v -4.188481 -2.915161 -17.038343
v -4.188481 3.666078 -17.102476
v -4.211165 -3.783504 -11.628213
v -4.188481 0.311326 -17.102476
v -4.149394 0.098022 -11.646183
v -4.188482 4.499807 -11.715302
v -4.10691 0.136026 -6.223561
v 4.230167 -3.834177 -11.628213
v 0.0 -2.915161 -17.038343
v 0.0 -3.877156 -11.715302
v -4.211165 -3.783504 -11.628213
v 4.188482 4.499807 -11.715302
v 4.188482 0.311326 -17.102476
v 4.116049 0.136026 -11.684279
v 4.230167 -3.834177 -11.628213
v 4.149032 0.136026 -6.185466
v -4.149394 0.098022 -11.646183
v -4.10691 0.136026 -6.223561
v 4.116049 0.136026 -11.684279
v 4.149032 0.136026 -6.185466
v -4.10691 0.136026 -6.223561
v -4.149394 0.098022 -11.646183
v 4.149032 0.136026 -6.185466
v 4.116049 0.136026 -11.684279
v -4.149394 0.098022 -11.646183
v -4.211165 -3.783504 -11.628213
v 4.116049 0.136026 -11.684279
v 4.230167 -3.834177 -11.628213
v -4.10691 0.136026 -6.223561
v -4.251554 -3.812687 -6.283525
v 4.149032 0.136026 -6.185466
v 4.183959 -3.812687 -6.283525
v 4.193871 4.469521 11.85168
v -4.240162 4.496541 11.8375
v 3.990949 10.421853 10.73306
v -4.167455 10.421853 10.755928
v 4.110861 10.402217 4.573062
v 4.119241 4.618758 5.748851
v 4.193871 4.469521 11.85168
v 4.049999 10.368406 10.778796
v -4.085567 10.402217 4.573062
v -4.132835 4.571159 5.707701
v -4.240162 4.496541 11.8375
v -4.167455 10.400853 10.755928
v 1.439719 10.434125 -2.551132
v 1.439719 10.434125 -3.592768
v 1.439719 11.702513 -2.551132
v 1.439719 11.702513 -3.592768
v -1.440263 10.434125 -3.592768
v -1.440263 10.434125 -2.551132
v -1.440263 11.702513 -3.592768
v -1.440263 11.702513 -2.551132

# 321 Texture Coordinates
vt 0.0 1.0
vt 0.0 0.0
vt 1.0 0.0
vt 0.0 1.0
vt 0.0 0.0
vt 1.0 0.0
vt 0.0 1.0
vt 0.0 0.0
vt 1.0 0.0
vt 0.0 1.0
vt 0.0 0.0
vt 1.0 0.0
vt 0.0 1.0
vt 0.0 0.0
vt 1.0 0.0
vt 0.0 1.0
vt 0.0 0.0
vt 1.0 0.0
vt 0.0 1.0
vt 0.0 0.0
vt 1.0 0.0
vt 0.0 1.0
vt 0.0 0.0
vt 1.0 0.0
vt 0.0 1.0
vt 0.0 0.0
vt 1.0 0.0
vt 0.0 1.0
vt 0.0 0.0
vt 1.0 0.0
vt 0.0 1.0
vt 0.0 0.0
vt 1.0 0.0
vt 0.0 1.0
vt 0.0 0.0
vt 1.0 0.0
vt 0.0 1.0
vt 0.0 0.0
vt 1.0 0.0
vt 0.0 1.0
vt 0.0 0.0
vt 1.0 0.0
vt 0.0 1.0
vt 0.0 0.0
vt 1.0 0.0
vt 0.0 1.0
vt 0.0 0.0
vt 1.0 0.0
vt 0.0 1.0
vt 0.0 0.0
vt 1.0 0.0
vt 0.0 1.0
vt 0.0 0.0
vt 1.0 0.0
vt 0.0 1.0
vt 0.0 0.0
vt 1.0 0.0
vt 0.179738 0.254053
vt 0.3776 0.254511
vt 0.180534 0.415945
vt 0.3776 0.254511
vt 0.37582 0.415855
vt 0.180534 0.415945
vt 0.49575 0.414937
vt 0.463239 0.414937
vt 0.462599 0.329791
vt 0.37582 0.415855
vt 0.357488 0.528859
vt 0.220338 0.528991
vt 0.220338 0.528991
vt 0.180534 0.415945
vt 0.37582 0.415855
vt 0.49575 0.253267
vt 0.49575 0.334102
vt 0.462919 0.252141
vt 0.49575 0.414937
vt 0.462599 0.329791
vt 0.49575 0.334102
vt 0.462919 0.252141
vt 0.49575 0.334102
vt 0.462599 0.329791
vt 0.37582 0.415855
vt 0.371784 0.328813
vt 0.463239 0.414937
vt 0.463239 0.414937
vt 0.371784 0.328813
vt 0.462599 0.329791
vt 0.092047 0.329527
vt 0.090917 0.414478
vt 0.002825 0.398387
vt 0.092341 0.254616
vt 0.002825 0.333643
vt 0.003873 0.271375
vt 0.002825 0.333643
vt 0.092047 0.329527
vt 0.002825 0.398387
vt 0.092047 0.329527
vt 0.002825 0.333643
vt 0.092341 0.254616
vt 0.090917 0.414478
vt 0.180719 0.33026
vt 0.180534 0.415945
vt 0.092047 0.329527
vt 0.180719 0.33026
vt 0.090917 0.414478
vt 0.357266 0.52839
vt 0.37582 0.415855
vt 0.476056 0.414415
vt 0.357266 0.52839
vt 0.476056 0.414415
vt 0.45837 0.528364
vt 0.376955 0.697983
vt 0.181695 0.699079
vt 0.375864 0.875826
vt 0.181695 0.699079
vt 0.18248 0.874926
vt 0.375864 0.875826
vt 0.375864 0.875826
vt 0.461469 0.87383
vt 0.461657 0.781345
vt 0.493552 0.698225
vt 0.461154 0.697002
vt 0.461657 0.781345
vt 0.18248 0.874926
vt 0.221761 0.997715
vt 0.35689 0.997064
vt 0.35689 0.997064
vt 0.375864 0.875826
vt 0.18248 0.874926
vt 0.493552 0.87383
vt 0.493552 0.786028
vt 0.461469 0.87383
vt 0.493552 0.698225
vt 0.461657 0.781345
vt 0.493552 0.786028
vt 0.461469 0.87383
vt 0.493552 0.786028
vt 0.461657 0.781345
vt 0.375864 0.875826
vt 0.461657 0.781345
vt 0.371216 0.781345
vt 0.094542 0.781855
vt 0.094042 0.873333
vt 0.18248 0.874926
vt 0.094542 0.781855
vt 0.095448 0.698629
vt 0.008143 0.717893
vt 0.094042 0.873333
vt 0.007108 0.78553
vt 0.007108 0.855855
vt 0.007108 0.78553
vt 0.094542 0.781855
vt 0.008143 0.717893
vt 0.094542 0.781855
vt 0.007108 0.78553
vt 0.094042 0.873333
vt 0.183277 0.781855
vt 0.094542 0.781855
vt 0.18248 0.874926
vt 0.474346 0.872697
vt 0.375864 0.875826
vt 0.35689 0.997064
vt 0.457032 0.996355
vt 0.474346 0.872697
vt 0.35689 0.997064
vt 0.946307 0.772983
vt 0.690052 0.856319
vt 0.691203 0.772848
vt 0.946307 0.772983
vt 0.948704 0.856319
vt 0.690052 0.856319
vt 0.69177 0.761691
vt 0.690052 0.688701
vt 0.948704 0.688701
vt 0.948704 0.688701
vt 0.946566 0.761281
vt 0.69177 0.761691
vt 0.690052 0.880545
vt 0.690052 0.856319
vt 0.948704 0.856319
vt 0.948704 0.856319
vt 0.948704 0.880545
vt 0.690052 0.880545
vt 0.948704 0.988701
vt 0.690052 0.988701
vt 0.690052 0.880545
vt 0.690052 0.880545
vt 0.948704 0.880545
vt 0.948704 0.988701
vt 0.94887 0.700545
vt 0.942605 0.711678
vt 0.690701 0.71145
vt 0.690701 0.71145
vt 0.688456 0.700686
vt 0.94887 0.700545
vt 0.691203 0.772848
vt 0.690701 0.71145
vt 0.942605 0.711678
vt 0.942605 0.711678
vt 0.946307 0.772983
vt 0.691203 0.772848
vt 0.726994 0.157738
vt 1.0 0.0
vt 0.726994 0.0
vt 0.726994 0.157738
vt 1.0 0.157738
vt 1.0 0.0
vt 1.0 0.713836
vt 0.696113 0.713836
vt 1.0 1.0
vt 0.696113 0.713836
vt 0.696113 1.0
vt 1.0 1.0
vt 0.974576 0.039548
vt 0.974576 0.16858
vt 0.693051 0.16858
vt 0.693051 0.16858
vt 0.693051 0.039548
vt 0.974576 0.039548
vt 0.957627 0.09887
vt 0.957627 0.227902
vt 0.676102 0.227902
vt 0.676102 0.227902
vt 0.676102 0.09887
vt 0.957627 0.09887
vt 0.957627 0.09887
vt 0.957627 0.227902
vt 0.676102 0.227902
vt 0.676102 0.227902
vt 0.676102 0.09887
vt 0.957627 0.09887
vt 1.0 0.0
vt 1.0 0.129032
vt 0.718475 0.129032
vt 0.718475 0.129032
vt 0.718475 0.0
vt 1.0 0.0
vt 1.0 0.0
vt 1.0 0.129032
vt 0.718475 0.129032
vt 0.718475 0.129032
vt 0.718475 0.0
vt 1.0 0.0
vt 1.0 0.0
vt 1.0 0.129032
vt 0.718475 0.129032
vt 0.718475 0.129032
vt 0.718475 0.0
vt 1.0 0.0
vt 0.988701 0.039548
vt 0.988701 0.16858
vt 0.707176 0.16858
vt 0.707176 0.16858
vt 0.707176 0.039548
vt 0.988701 0.039548
vt 0.988701 0.039548
vt 0.988701 0.16858
vt 0.707176 0.16858
vt 0.707176 0.16858
vt 0.707176 0.039548
vt 0.988701 0.039548
vt 1.0 0.0
vt 1.0 0.129032
vt 0.718475 0.129032
vt 0.718475 0.129032
vt 0.718475 0.0
vt 1.0 0.0
vt 1.0 0.0
vt 1.0 0.129032
vt 0.718475 0.129032
vt 0.718475 0.129032
vt 0.718475 0.0
vt 1.0 0.0
vt 1.0 0.0
vt 1.0 0.129032
vt 0.718475 0.129032
vt 0.718475 0.129032
vt 0.718475 0.0
vt 1.0 0.0
vt 1.0 0.0
vt 1.0 0.129032
vt 0.718475 0.129032
vt 0.718475 0.129032
vt 0.718475 0.0
vt 1.0 0.0
vt 0.0 0.0
vt 0.0 0.0
vt 0.0 0.049834
vt 0.0 0.0
vt 0.0 0.049834
vt 0.0 0.049834
vt 0.137705 0.0
vt 0.137705 0.0
vt 0.137705 0.049834
vt 0.137705 0.0
vt 0.137705 0.049834
vt 0.137705 0.049834
vt 0.0 0.049834
vt 0.137705 0.0
vt 0.0 0.0
vt 0.0 0.049834
vt 0.137705 0.049834
vt 0.137705 0.0
vt 0.137705 0.049834
vt 0.0 0.0
vt 0.137705 0.0
vt 0.137705 0.049834
vt 0.0 0.049834
vt 0.0 0.0
vt 0.0 0.049834
vt 0.137705 0.049834
vt 0.137705 0.049834
vt 0.0 0.049834
vt 0.0 0.049834
vt 0.137705 0.049834
vt 0.0 0.0
vt 0.137705 0.0
vt 0.137705 0.0
vt 0.0 0.0
vt 0.0 0.0
vt 0.137705 0.0

# 321 Vertex Normals
vn -0.003988 0.574712 0.818346
vn 0.002191 0.199229 0.97995
vn 0.002191 0.199229 0.97995
vn -0.005982 0.18803 0.982145
vn -0.00491 0.909219 0.41629
vn -0.003988 0.574712 0.818346
vn -nan -nan -nan
vn -nan -nan -nan
vn -nan -nan -nan
vn -nan -nan -nan
vn -nan -nan -nan
vn -nan -nan -nan
vn -nan -nan -nan
vn -nan -nan -nan
vn -nan -nan -nan
vn -nan -nan -nan
vn -nan -nan -nan
vn -nan -nan -nan
vn -nan -nan -nan
vn -nan -nan -nan
vn -nan -nan -nan
vn -nan -nan -nan
vn -nan -nan -nan
vn -nan -nan -nan
vn -nan -nan -nan
vn -nan -nan -nan
vn -nan -nan -nan
vn -nan -nan -nan
vn -nan -nan -nan
vn -nan -nan -nan
vn 0.99999 0.0 -0.004446
vn 0.99999 0.0 -0.004446
vn 0.99999 0.0 -0.004446
vn 0.99999 0.0 -0.004446
vn 0.99999 0.0 -0.004446
vn 0.99999 0.0 -0.004446
vn 0.001638 0.0 0.999999
vn 0.001638 0.0 0.999999
vn 0.001638 0.0 0.999999
vn -0.001638 0.0 -0.999999
vn -0.001638 0.0 -0.999999
vn -0.001638 0.0 -0.999999
vn -0.999957 0.0 -0.009269
vn -0.999957 0.0 -0.009269
vn -0.999957 0.0 -0.009269
vn 0.999957 0.0 0.00927
vn 0.999957 0.0 0.00927
vn 0.999957 0.0 0.00927
vn 0.0 0.0 1.0
vn 0.0 0.0 1.0
vn 0.0 0.0 1.0
vn 0.0 0.0 1.0
vn 0.0 0.0 1.0
vn 0.0 0.0 1.0
vn -0.000083 -0.959268 0.282497
vn 0.008327 -0.803212 0.595635
vn -0.005544 -0.921412 0.388548
vn -0.999969 0.007505 0.002386
vn -0.999952 0.009146 0.003525
vn -0.999978 0.005452 0.003903
vn -0.999952 0.009146 0.003525
vn -0.999998 0.001943 0.000842
vn -0.999978 0.005452 0.003903
vn -0.999873 -0.006645 -0.014457
vn -0.999959 -0.008462 -0.003074
vn -0.99989 -0.000435 -0.014847
vn -0.999998 0.001943 0.000842
vn -0.999987 -0.002285 0.004444
vn -0.999987 -0.002285 0.004444
vn -0.999987 -0.001936 0.004659
vn -0.999978 0.005452 0.003903
vn -0.999998 0.001943 0.000842
vn -0.443417 0.0 0.896315
vn -0.999878 0.008286 -0.013208
vn -0.999908 0.01243 -0.005352
vn -0.999873 -0.006645 -0.014457
vn -0.99989 -0.000435 -0.014847
vn -0.999878 0.008286 -0.013208
vn -0.999908 0.01243 -0.005352
vn -0.999878 0.008286 -0.013208
vn -0.99989 -0.000435 -0.014847
vn -0.999998 0.001943 0.000842
vn -0.999971 -0.006048 -0.004612
vn -0.999959 -0.008462 -0.003074
vn -0.999959 -0.008462 -0.003074
vn -0.999971 -0.006048 -0.004612
vn -0.99989 -0.000435 -0.014847
vn -0.999982 -0.000416 0.006054
vn -0.999923 -0.011994 0.003174
vn -0.999981 -0.004429 0.004267
vn -0.999967 0.007932 0.00179
vn -0.99998 0.005288 0.003581
vn -0.715703 -0.689103 -0.113604
vn -0.99998 0.005288 0.003581
vn -0.999982 -0.000416 0.006054
vn -0.999981 -0.004429 0.004267
vn -0.999982 -0.000416 0.006054
vn -0.99998 0.005288 0.003581
vn -0.999967 0.007932 0.00179
vn -0.999923 -0.011994 0.003174
vn -0.9999 -0.013562 0.004075
vn -0.999831 -0.018369 0.000255
vn -0.999982 -0.000416 0.006054
vn -0.9999 -0.013562 0.004075
vn -0.999923 -0.011994 0.003174
vn -0.999856 0.007298 -0.015345
vn -0.999837 0.00471 -0.017449
vn -0.999856 0.007298 -0.015345
vn -0.999856 0.007298 -0.015345
vn -0.999856 0.007298 -0.015345
vn -0.999863 0.009887 -0.01324
vn 0.999865 0.015486 -0.005474
vn 0.999972 0.007457 0.000153
vn 0.999986 0.0045 -0.002967
vn 0.999972 0.007457 0.000153
vn 0.999976 -0.000599 0.006934
vn 0.999986 0.0045 -0.002967
vn 0.999986 0.0045 -0.002967
vn 0.999989 -0.000386 -0.00475
vn 0.999987 0.000855 -0.004969
vn 0.999999 -0.000062 -0.001374
vn 0.999999 -0.000124 -0.001498
vn 0.999987 0.000855 -0.004969
vn 0.999976 -0.000599 0.006934
vn 0.99995 -0.003846 0.009255
vn 0.99995 -0.003846 0.009255
vn 0.99998 0.002622 0.005768
vn 0.999986 0.0045 -0.002967
vn 0.999976 -0.000599 0.006934
vn 1.0 0.0 0.0
vn 1.0 -0.000188 -0.000812
vn 0.999989 -0.000386 -0.00475
vn 0.999999 -0.000062 -0.001374
vn 0.999987 0.000855 -0.004969
vn 1.0 -0.000188 -0.000812
vn 0.999989 -0.000386 -0.00475
vn 1.0 -0.000188 -0.000812
vn 0.999987 0.000855 -0.004969
vn 0.999986 0.0045 -0.002967
vn 0.999987 0.000855 -0.004969
vn 0.999954 0.005558 -0.007846
vn 0.99999 -0.002619 0.003523
vn 0.99993 -0.011033 0.004354
vn 0.999914 -0.012773 -0.002884
vn 0.99999 -0.002619 0.003523
vn 0.999584 0.028692 -0.002828
vn 0.999881 0.014481 0.005275
vn 0.99993 -0.011033 0.004354
vn 0.999947 -0.005413 0.008736
vn 1.0 0.0 -0.0
vn 0.999947 -0.005413 0.008736
vn 0.99999 -0.002619 0.003523
vn 0.999881 0.014481 0.005275
vn 0.99999 -0.002619 0.003523
vn 0.999947 -0.005413 0.008736
vn 0.99993 -0.011033 0.004354
vn 0.999942 -0.008952 -0.005998
vn 0.99999 -0.002619 0.003523
vn 0.999914 -0.012773 -0.002884
vn 0.99992 0.012575 -0.001154
vn 0.999924 -0.001042 -0.012253
vn 0.99992 0.012575 -0.001154
vn 0.999608 0.026189 0.009946
vn 0.99992 0.012575 -0.001154
vn 0.99992 0.012575 -0.001154
vn -0.0 1.0 0.0
vn -0.0 1.0 0.0
vn -0.0 1.0 0.0
vn -0.0 1.0 0.0
vn 0.0 1.0 0.0
vn -0.0 1.0 0.0
vn -0.00491 0.909219 0.41629
vn 0.0 0.999979 0.00649
vn -0.002917 0.999948 0.009799
vn -0.002917 0.999948 0.009799
vn -0.003988 0.574712 0.818346
vn -0.00491 0.909219 0.41629
vn 0.0 0.383751 -0.923437
vn 0.0 0.383751 -0.923437
vn 0.0 0.383751 -0.923437
vn 0.0 0.383751 -0.923437
vn 0.0 0.383751 -0.923437
vn 0.0 0.383751 -0.923437
vn 0.0 0.673378 -0.739299
vn 0.0 0.673378 -0.739299
vn 0.0 0.996515 -0.083419
vn 0.0 0.996515 -0.083419
vn 0.0 0.996515 -0.083419
vn 0.0 0.673378 -0.739299
vn 0.000838 0.182184 0.983264
vn 0.00115 0.91198 0.410233
vn 0.0007 0.570037 0.821618
vn 0.0007 0.570037 0.821618
vn -0.001079 0.17958 0.983743
vn 0.000838 0.182184 0.983264
vn -0.0 1.0 0.0
vn 0.0007 0.570037 0.821618
vn 0.00115 0.91198 0.410233
vn 0.00115 0.91198 0.410233
vn -0.0 1.0 0.0
vn -0.0 1.0 0.0
vn 0.0 0.0 1.0
vn -0.396911 -0.402291 0.824999
vn 0.0 -0.696757 0.717307
vn 0.0 0.0 1.0
vn 0.0 0.0 1.0
vn -0.396911 -0.402291 0.824999
vn 0.0 -0.648901 -0.760873
vn -0.00822 -0.648524 -0.76115
vn 0.0 0.673378 -0.739299
vn -0.00822 -0.648524 -0.76115
vn 0.0 0.673378 -0.739299
vn 0.0 0.673378 -0.739299
vn -0.004485 -0.999989 -0.001153
vn -0.004485 -0.999989 -0.001153
vn 0.0 -0.999998 0.001963
vn -0.004485 -0.999989 -0.001153
vn -0.00897 -0.999951 -0.004269
vn -0.004485 -0.999989 -0.001153
vn 0.004794 -0.701941 0.712219
vn 0.008327 -0.803212 0.595635
vn -0.000083 -0.959268 0.282497
vn 0.0 -0.696757 0.717307
vn -0.004648 -0.999942 0.009688
vn -0.005544 -0.921412 0.388548
vn 0.006829 -0.999873 0.014387
vn -0.000083 -0.959268 0.282497
vn -0.004648 -0.999942 0.009688
vn -0.005544 -0.921412 0.388548
vn -0.004648 -0.999942 0.009688
vn -0.000083 -0.959268 0.282497
vn 0.003061 -0.999985 0.004559
vn 0.006121 -0.99994 0.009117
vn 0.003061 -0.999985 0.004559
vn 0.003061 -0.999985 0.004559
vn 0.0 -1.0 0.0
vn 0.003061 -0.999985 0.004559
vn 0.00014 0.090514 0.995895
vn 0.000825 0.091966 0.995762
vn 0.00014 0.090514 0.995895
vn 0.00014 0.090514 0.995895
vn -0.000545 0.089063 0.996026
vn 0.00014 0.090514 0.995895
vn 0.003054 0.001448 -0.999994
vn 0.0 -0.004863 -0.999988
vn 0.003054 0.001448 -0.999994
vn 0.003054 0.001448 -0.999994
vn 0.006108 0.00776 -0.999951
vn 0.003054 0.001448 -0.999994
vn -0.003858 -0.985189 -0.171428
vn -0.025229 -0.987032 -0.158528
vn -0.316515 -0.614576 -0.722575
vn 0.006829 -0.984959 -0.172654
vn 0.004553 -0.984667 -0.174385
vn 0.0 -0.648901 -0.760873
vn 0.004553 -0.984667 -0.174385
vn -0.003858 -0.985189 -0.171428
vn -0.00822 -0.648524 -0.76115
vn -0.003858 -0.985189 -0.171428
vn 0.004553 -0.984667 -0.174385
vn 0.006829 -0.984959 -0.172654
vn 0.002283 -0.999991 0.00349
vn -0.000032 -0.999975 0.007008
vn 0.002283 -0.999991 0.00349
vn 0.002283 -0.999991 0.00349
vn 0.004598 -0.999989 -0.000028
vn 0.002283 -0.999991 0.00349
vn 0.002315 -0.999991 0.003486
vn 0.00463 -0.999965 0.006972
vn 0.002315 -0.999991 0.003486
vn 0.002315 -0.999991 0.003486
vn 0.0 -1.0 0.0
vn 0.002315 -0.999991 0.003486
vn 0.002285 0.00944 0.999953
vn 0.000028 0.004629 0.999989
vn 0.002285 0.00944 0.999953
vn 0.002285 0.00944 0.999953
vn 0.004543 0.014251 0.999888
vn 0.002285 0.00944 0.999953
vn 0.002306 0.020025 -0.999797
vn 0.0 0.015184 -0.999885
vn 0.002306 0.020025 -0.999797
vn 0.002306 0.020025 -0.999797
vn 0.004613 0.024866 -0.99968
vn 0.002306 0.020025 -0.999797
vn 1.0 0.0 0.0
vn 1.0 0.0 0.0
vn 1.0 0.0 0.0
vn 1.0 0.0 0.0
vn 1.0 0.0 0.0
vn 1.0 0.0 0.0
vn -1.0 0.0 -0.0
vn -1.0 0.0 -0.0
vn -1.0 0.0 -0.0
vn -1.0 0.0 -0.0
vn -1.0 0.0 -0.0
vn -1.0 0.0 -0.0
vn 0.0 0.0 1.0
vn 0.0 0.0 1.0
vn 0.0 0.0 1.0
vn 0.0 0.0 1.0
vn 0.0 0.0 1.0
vn 0.0 0.0 1.0
vn 0.0 0.0 -1.0
vn 0.0 0.0 -1.0
vn 0.0 0.0 -1.0
vn 0.0 0.0 -1.0
vn 0.0 0.0 -1.0
vn 0.0 0.0 -1.0
vn 0.0 1.0 0.0
vn 0.0 1.0 0.0
vn 0.0 1.0 0.0
vn 0.0 1.0 0.0
vn 0.0 1.0 0.0
vn 0.0 1.0 0.0
vn 0.0 -1.0 0.0
vn 0.0 -1.0 0.0
vn 0.0 -1.0 0.0
vn 0.0 -1.0 0.0
vn 0.0 -1.0 0.0
vn 0.0 -1.0 0.0

# 2 Ungrouped triangles

o ungrouped
g ungrouped

f 105/304/304 100/305/305 103/306/306
f 105/307/307 102/308/308 100/309/309
# ungrouped, 19 grouped triangles

o ungrouped
g ungrouped

f 3/1/1 13/2/2 16/3/3
f 16/4/4 8/5/5 3/6/6
f 16/7/7 20/8/8 19/9/9
f 19/10/10 15/11/11 16/12/12
f 13/13/13 17/14/14 20/15/15
f 20/16/16 16/17/17 13/18/18
f 14/19/19 18/20/20 17/21/21
f 17/22/22 13/23/23 14/24/24
f 15/25/25 19/26/26 18/27/27
f 18/28/28 14/29/29 15/30/30
f 20/31/31 24/32/32 23/33/33
f 23/34/34 19/35/35 20/36/36
f 17/37/37 21/38/38 24/39/39
f 24/40/40 20/41/41 17/42/42
f 18/43/43 22/44/44 21/45/45
f 21/46/46 17/47/47 18/48/48
f 19/49/49 23/50/50 22/51/51
f 22/52/52 18/53/53 19/54/54
f 32/55/55 33/56/56 30/57/57
# right, 18 grouped triangles

usemtl car
o right
g right

f 5/58/58 6/59/59 7/60/60
f 6/61/61 8/62/62 7/63/63
f 12/64/64 28/65/65 27/66/66
f 8/67/67 16/68/68 15/69/69
f 15/70/70 7/71/71 8/72/72
f 11/73/73 26/74/74 25/75/75
f 12/76/76 27/77/77 26/78/78
f 25/79/79 26/80/80 27/81/81
f 8/82/82 29/83/83 28/84/84
f 28/85/85 29/86/86 27/87/87
f 59/88/88 60/89/89 56/90/90
f 57/91/91 58/92/92 55/93/93
f 58/94/94 59/95/95 56/96/96
f 59/97/97 58/98/98 57/99/99
f 60/100/100 61/101/101 52/102/102
f 59/103/103 61/104/104 60/105/105
f 95/106/106 96/107/107 97/108/108
f 95/109/109 97/110/110 98/111/111
# left, 18 grouped triangles

usemtl car
o left
g left

f 1/112/112 2/113/113 3/114/114
f 2/115/115 4/116/116 3/117/117
f 3/118/118 34/119/119 36/120/120
f 9/121/121 37/122/122 36/123/123
f 4/124/124 14/125/125 13/126/126
f 13/127/127 3/128/128 4/129/129
f 10/130/130 35/131/131 34/132/132
f 9/133/133 36/134/134 35/135/135
f 34/136/136 35/137/137 36/138/138
f 3/139/139 36/140/140 38/141/141
f 68/142/142 66/143/143 51/144/144
f 68/145/145 69/146/146 53/147/147
f 66/148/148 67/149/149 54/150/150
f 67/151/151 68/152/152 53/153/153
f 68/154/154 67/155/155 66/156/156
f 70/157/157 68/158/158 51/159/159
f 93/160/160 92/161/161 91/162/162
f 94/163/163 93/164/164 91/165/165
# top, 12 grouped triangles

usemtl car
o top
g top

f 21/166/166 23/167/167 24/168/168
f 21/169/169 22/170/170 23/171/171
f 8/172/172 12/173/173 10/174/174
f 10/175/175 3/176/176 8/177/177
f 7/178/178 15/179/179 14/180/180
f 14/181/181 4/182/182 7/183/183
f 54/184/184 56/185/185 52/186/186
f 52/187/187 51/188/188 54/189/189
f 87/190/190 89/191/191 90/192/192
f 90/193/193 88/194/194 87/195/195
f 24/196/196 90/197/197 89/198/198
f 89/199/199 21/200/200 24/201/201
# back, 2 grouped triangles

usemtl car
o back
g back

f 10/202/202 11/203/203 9/204/204
f 10/205/205 12/206/206 11/207/207
# front, 2 grouped triangles

usemtl car
o front
g front

f 53/208/208 55/209/209 54/210/210
f 55/211/211 56/212/212 54/213/213
# underneath, 24 grouped triangles

usemtl car
o underneath
g underneath

f 2/214/214 6/215/215 5/216/216
f 2/217/217 1/218/218 6/219/219
f 11/220/220 33/221/221 32/222/222
f 9/223/223 31/224/224 30/225/225
f 11/226/226 32/227/227 31/228/228
f 30/229/229 31/230/230 32/231/231
f 39/232/232 40/233/233 42/234/234
f 42/235/235 41/236/236 39/237/237
f 43/238/238 44/239/239 46/240/240
f 46/241/241 45/242/242 43/243/243
f 50/244/244 48/245/245 47/246/246
f 47/247/247 49/248/248 50/249/249
f 64/250/250 65/251/251 55/252/252
f 62/253/253 63/254/254 53/255/255
f 63/256/256 64/257/257 55/258/258
f 64/259/259 63/260/260 62/261/261
f 74/262/262 72/263/263 71/264/264
f 71/265/265 73/266/266 74/267/267
f 75/268/268 76/269/269 78/270/270
f 78/271/271 77/272/272 75/273/273
f 79/274/274 80/275/275 82/276/276
f 82/277/277 81/278/278 79/279/279
f 86/280/280 84/281/281 83/282/282
f 83/283/283 85/284/284 86/285/285
# taxi_sign, 10 grouped triangles

usemtl car
o taxi_sign
g taxi_sign

f 99/286/286 100/287/287 101/288/288
f 100/289/289 102/290/290 101/291/291
f 103/292/292 104/293/293 105/294/294
f 104/295/295 106/296/296 105/297/297
f 101/298/298 104/299/299 99/300/300
f 101/301/301 106/302/302 104/303/303
f 101/310/310 105/311/311 106/312/312
f 101/313/313 102/314/314 105/315/315
f 100/316/316 104/317/317 103/318/318
f 100/319/319 99/320/320 104/321/321
