# Wavefront OBJ file
# Exported by Maverick Model 3D 1.3.12
# Sat Mar 26 16:05:47 2022

mtllib office1.mtl

# 8 Vertices
v -5.301421 -0.859804 5.624533
v 5.46896 -0.859804 5.624533
v -5.301421 27.249562 5.624533
v 5.46896 27.249562 5.624533
v 5.46896 -0.859804 -5.624533
v -5.301421 -0.859804 -5.624533
v 5.46896 27.249562 -5.624533
v -5.301421 27.249562 -5.624533

# 36 Texture Coordinates
vt 0.0 0.0
vt 0.373532 0.0
vt 0.0 0.740566
vt 0.373532 0.0
vt 0.373532 0.740566
vt 0.0 0.740566
vt 0.633423 0.0
vt 1.0 0.0
vt 0.633423 0.735849
vt 1.0 0.0
vt 1.0 0.735849
vt 0.633423 0.735849
vt 0.503724 0.741931
vt 0.358824 0.0
vt 0.503724 0.0
vt 0.503724 0.741931
vt 0.358824 0.741931
vt 0.358824 0.0
vt 0.634304 0.735751
vt 0.51844 0.0
vt 0.634304 0.0
vt 0.634304 0.735751
vt 0.51844 0.735751
vt 0.51844 0.0
vt -0.002164 0.743719
vt 1.0 1.0
vt -0.002164 1.0
vt -0.002164 0.743719
vt 1.0 0.743719
vt 1.0 1.0
vt 0.0 1.0
vt 0.0 0.0
vt 1.0 0.0
vt 0.0 1.0
vt 0.0 0.0
vt 1.0 0.0

# 36 Vertex Normals
vn 0.0 0.0 1.0
vn 0.0 0.0 1.0
vn 0.0 0.0 1.0
vn 0.0 0.0 1.0
vn 0.0 0.0 1.0
vn 0.0 0.0 1.0
vn 0.0 0.0 -1.0
vn 0.0 0.0 -1.0
vn 0.0 0.0 -1.0
vn 0.0 0.0 -1.0
vn 0.0 0.0 -1.0
vn 0.0 0.0 -1.0
vn -1.0 0.0 0.0
vn -1.0 0.0 0.0
vn -1.0 0.0 0.0
vn -1.0 0.0 0.0
vn -1.0 0.0 0.0
vn -1.0 0.0 0.0
vn 1.0 0.0 0.0
vn 1.0 0.0 0.0
vn 1.0 0.0 0.0
vn 1.0 0.0 0.0
vn 1.0 0.0 0.0
vn 1.0 0.0 0.0
vn 0.0 1.0 0.0
vn 0.0 1.0 0.0
vn 0.0 1.0 0.0
vn 0.0 1.0 0.0
vn 0.0 1.0 0.0
vn 0.0 1.0 0.0
vn 0.0 -1.0 0.0
vn 0.0 -1.0 0.0
vn 0.0 -1.0 0.0
vn 0.0 -1.0 0.0
vn 0.0 -1.0 0.0
vn 0.0 -1.0 0.0

# 2 Ungrouped triangles

o ungrouped
g ungrouped

f 2/31/31 6/32/32 5/33/33
f 2/34/34 1/35/35 6/36/36
# front, 2 grouped triangles

usemtl office1
o front
g front

f 1/1/1 2/2/2 3/3/3
f 2/4/4 4/5/5 3/6/6
# back, 2 grouped triangles

usemtl office1
o back
g back

f 5/7/7 6/8/8 7/9/9
f 6/10/10 8/11/11 7/12/12
# left, 2 grouped triangles

usemtl office1
o left
g left

f 7/19/19 2/20/20 5/21/21
f 7/22/22 4/23/23 2/24/24
# right, 2 grouped triangles

usemtl office1
o right
g right

f 3/13/13 6/14/14 1/15/15
f 3/16/16 8/17/17 6/18/18
# top, 2 grouped triangles

usemtl office1
o top
g top

f 3/25/25 7/26/26 8/27/27
f 3/28/28 4/29/29 7/30/30
