# Wavefront OBJ file
# Exported by Maverick Model 3D 1.3.12
# Sat Feb 19 07:38:33 2022

mtllib tree.mtl

# 16 Vertices
v -8.324658 0.78199 13.597159
v 7.017808 0.78199 13.597159
v -8.324658 30.741739 13.597159
v 7.017808 30.741739 13.597159
v 7.017808 0.78199 -1.745307
v -8.324658 0.78199 -1.745307
v 7.017808 30.741739 -1.745307
v -8.324658 30.741739 -1.745307
v -22.774176 27.535244 28.677153
v 21.938154 27.535244 28.677153
v -22.774176 72.247574 28.677153
v 21.938154 72.247574 28.677153
v 21.938154 27.535244 -16.035177
v -22.774176 27.535244 -16.035177
v 21.938154 72.247574 -16.035177
v -22.774176 72.247574 -16.035177

# 72 Texture Coordinates
vt 0.0 1.0
vt 0.0 0.0
vt 1.0 0.0
vt 0.0 1.0
vt 0.0 0.0
vt 1.0 0.0
vt 0.0 1.0
vt 0.0 0.0
vt 1.0 0.0
vt 0.0 1.0
vt 0.0 0.0
vt 1.0 0.0
vt 0.0 0.503787
vt 0.498582 0.503787
vt 0.0 1.0
vt 0.498582 0.503787
vt 0.498582 1.0
vt 0.0 1.0
vt 0.491295 0.501431
vt 0.0 0.501431
vt 0.491295 1.0
vt 0.0 0.501431
vt 0.0 1.0
vt 0.491295 1.0
vt 0.490794 1.0
vt 0.0 0.499432
vt 0.490794 0.499432
vt 0.490794 1.0
vt 0.0 1.0
vt 0.0 0.499432
vt 0.487924 1.0
vt 0.0 0.515531
vt 0.487924 0.515531
vt 0.487924 1.0
vt 0.0 1.0
vt 0.0 0.515531
vt 0.511182 0.0
vt 1.0 0.0
vt 0.511182 0.488926
vt 1.0 0.0
vt 1.0 0.488926
vt 0.511182 0.488926
vt 0.497175 0.0
vt 1.0 0.0
vt 0.497175 0.497159
vt 1.0 0.0
vt 1.0 0.497159
vt 0.497175 0.497159
vt 1.0 0.498881
vt 0.497557 0.0
vt 1.0 0.0
vt 1.0 0.498881
vt 0.497557 0.498881
vt 0.497557 0.0
vt 0.501111 0.500669
vt 1.0 0.0
vt 0.501111 0.0
vt 0.501111 0.500669
vt 1.0 0.500669
vt 1.0 0.0
vt 0.503994 0.0
vt 1.0 0.49004
vt 0.503994 0.49004
vt 0.503994 0.0
vt 1.0 0.0
vt 1.0 0.49004
vt 1.0 0.0
vt 0.501127 0.49004
vt 1.0 0.49004
vt 1.0 0.0
vt 0.501127 0.0
vt 0.501127 0.49004

# 72 Vertex Normals
vn 0.0 1.0 0.0
vn 0.0 1.0 0.0
vn 0.0 1.0 0.0
vn 0.0 1.0 0.0
vn 0.0 1.0 0.0
vn 0.0 1.0 0.0
vn 0.0 -1.0 0.0
vn 0.0 -1.0 0.0
vn 0.0 -1.0 0.0
vn 0.0 -1.0 0.0
vn 0.0 -1.0 0.0
vn 0.0 -1.0 0.0
vn 0.0 0.0 1.0
vn 0.0 0.0 1.0
vn 0.0 0.0 1.0
vn 0.0 0.0 1.0
vn 0.0 0.0 1.0
vn 0.0 0.0 1.0
vn 0.0 0.0 -1.0
vn 0.0 0.0 -1.0
vn 0.0 0.0 -1.0
vn 0.0 0.0 -1.0
vn 0.0 0.0 -1.0
vn 0.0 0.0 -1.0
vn -1.0 0.0 0.0
vn -1.0 0.0 0.0
vn -1.0 0.0 0.0
vn -1.0 0.0 0.0
vn -1.0 0.0 0.0
vn -1.0 0.0 0.0
vn 1.0 0.0 0.0
vn 1.0 0.0 0.0
vn 1.0 0.0 0.0
vn 1.0 0.0 0.0
vn 1.0 0.0 0.0
vn 1.0 0.0 0.0
vn 0.0 0.0 1.0
vn 0.0 0.0 1.0
vn 0.0 0.0 1.0
vn 0.0 0.0 1.0
vn 0.0 0.0 1.0
vn 0.0 0.0 1.0
vn 0.0 0.0 -1.0
vn 0.0 0.0 -1.0
vn 0.0 0.0 -1.0
vn 0.0 0.0 -1.0
vn 0.0 0.0 -1.0
vn 0.0 0.0 -1.0
vn -1.0 0.0 0.0
vn -1.0 0.0 0.0
vn -1.0 0.0 0.0
vn -1.0 0.0 0.0
vn -1.0 0.0 0.0
vn -1.0 0.0 0.0
vn 1.0 0.0 0.0
vn 1.0 0.0 0.0
vn 1.0 0.0 0.0
vn 1.0 0.0 0.0
vn 1.0 0.0 0.0
vn 1.0 0.0 0.0
vn 0.0 1.0 0.0
vn 0.0 1.0 0.0
vn 0.0 1.0 0.0
vn 0.0 1.0 0.0
vn 0.0 1.0 0.0
vn 0.0 1.0 0.0
vn 0.0 -1.0 0.0
vn 0.0 -1.0 0.0
vn 0.0 -1.0 0.0
vn 0.0 -1.0 0.0
vn 0.0 -1.0 0.0
vn 0.0 -1.0 0.0

# ungrouped, 4 grouped triangles

o ungrouped
g ungrouped

f 3/1/1 7/2/2 8/3/3
f 3/4/4 4/5/5 7/6/6
f 2/7/7 6/8/8 5/9/9
f 2/10/10 1/11/11 6/12/12
# trunk1, 8 grouped triangles

usemtl trunk
o trunk1
g trunk1

f 1/13/13 2/14/14 3/15/15
f 2/16/16 4/17/17 3/18/18
f 5/19/19 6/20/20 7/21/21
f 6/22/22 8/23/23 7/24/24
f 3/25/25 6/26/26 1/27/27
f 3/28/28 8/29/29 6/30/30
f 7/31/31 2/32/32 5/33/33
f 7/34/34 4/35/35 2/36/36
# leaves, 12 grouped triangles

usemtl trunk
o leaves
g leaves

f 9/37/37 10/38/38 11/39/39
f 10/40/40 12/41/41 11/42/42
f 13/43/43 14/44/44 15/45/45
f 14/46/46 16/47/47 15/48/48
f 11/49/49 14/50/50 9/51/51
f 11/52/52 16/53/53 14/54/54
f 15/55/55 10/56/56 13/57/57
f 15/58/58 12/59/59 10/60/60
f 11/61/61 15/62/62 16/63/63
f 11/64/64 12/65/65 15/66/66
f 10/67/67 14/68/68 13/69/69
f 10/70/70 9/71/71 14/72/72
